HIERARCHY
ROOT SpineBase
{
  OFFSET 0.000000 0.000000 0.000000
  CHANNELS 6 Xposition Yposition Zposition Zrotation Xrotation Yrotation
  JOINT SpineMid
  {
    OFFSET 0.000000 33.233071 -0.000000
    CHANNELS 3 Zrotation Xrotation Yrotation
    JOINT SpineShoulder
    {
      OFFSET -0.343889 24.778669 -0.595454
      CHANNELS 3 Zrotation Xrotation Yrotation
      JOINT Neck
      {
        OFFSET -0.143953 8.208000 -0.550407
        CHANNELS 3 Zrotation Xrotation Yrotation
        JOINT Head
        {
          OFFSET 2.176213 12.871305 6.064199
          CHANNELS 3 Zrotation Xrotation Yrotation
          End Site
          {
            OFFSET 0 0 0
          }
        }
      }
      JOINT ShoulderLeft
      {
        OFFSET -6.997964 -7.231124 20.954566
        CHANNELS 3 Zrotation Xrotation Yrotation
        JOINT ElbowLeft
        {
          OFFSET -4.242142 -21.867657 11.842075
          CHANNELS 3 Zrotation Xrotation Yrotation
          JOINT WristLeft
          {
            OFFSET -10.078705 -14.008276 -26.151963
            CHANNELS 3 Zrotation Xrotation Yrotation
            JOINT HandLeft
            {
              OFFSET -3.355284 -4.701729 -8.307148
              CHANNELS 3 Zrotation Xrotation Yrotation
              JOINT HandTipLeft
              {
                OFFSET -1.187751 -1.318511 -1.346440
                CHANNELS 3 Zrotation Xrotation Yrotation
                End Site
                {
                  OFFSET 0 0 0
                }
              }
              JOINT ThumbLeft
              {
                OFFSET 0.059622 0.327883 -2.414102
                CHANNELS 3 Zrotation Xrotation Yrotation
                End Site
                {
                  OFFSET 0 0 0
                }
              }
            }
          }
        }
      }
      JOINT ShoulderRight
      {
        OFFSET 4.060941 -6.115958 -12.869264
        CHANNELS 3 Zrotation Xrotation Yrotation
        JOINT ElbowRight
        {
          OFFSET 4.937259 -27.385039 -5.081743
          CHANNELS 3 Zrotation Xrotation Yrotation
          JOINT WristRight
          {
            OFFSET -6.724400 -21.699905 -3.325923
            CHANNELS 3 Zrotation Xrotation Yrotation
            JOINT HandRight
            {
              OFFSET -2.591281 -5.912221 -0.314297
              CHANNELS 3 Zrotation Xrotation Yrotation
              JOINT HandTipRight
              {
                OFFSET -2.834150 -6.351196 -0.992517
                CHANNELS 3 Zrotation Xrotation Yrotation
                End Site
                {
                  OFFSET 0 0 0
                }
              }
              JOINT ThumbRight
              {
                OFFSET 2.456260 -1.774493 -2.113853
                CHANNELS 3 Zrotation Xrotation Yrotation
                End Site
                {
                  OFFSET 0 0 0
                }
              }
            }
          }
        }
      }
    }
  }
  JOINT HipLeft
  {
    OFFSET -2.075379 -0.547297 2.220345
    CHANNELS 3 Zrotation Xrotation Yrotation
    JOINT KneeLeft
    {
      OFFSET -6.177112 -29.413427 15.057879
      CHANNELS 3 Zrotation Xrotation Yrotation
      JOINT AnkleLeft
      {
        OFFSET 18.366595 -42.141342 -6.514521
        CHANNELS 3 Zrotation Xrotation Yrotation
        JOINT FootLeft
        {
          OFFSET -0.053828 -9.025437 -0.406636
          CHANNELS 3 Zrotation Xrotation Yrotation
          End Site
          {
            OFFSET 0 0 0
          }
        }
      }
    }
  }
  JOINT HipRight
  {
    OFFSET 1.702837 1.746128 -9.488722
    CHANNELS 3 Zrotation Xrotation Yrotation
    JOINT KneeRight
    {
      OFFSET 8.957341 -37.822729 -6.439616
      CHANNELS 3 Zrotation Xrotation Yrotation
      JOINT AnkleRight
      {
        OFFSET 9.891062 -34.822284 -5.477377
        CHANNELS 3 Zrotation Xrotation Yrotation
        JOINT FootRight
        {
          OFFSET -5.673360 -6.589738 -5.158016
          CHANNELS 3 Zrotation Xrotation Yrotation
          End Site
          {
            OFFSET 0 0 0
          }
        }
      }
    }
  }
}
MOTION
Frames: 14
Frame Time: 0.033333
17.211042 85.861905 318.330258 -0.000000 -0.000000 72.116439 0.000000 0.000000 -72.116439 -0.000000 0.000000 0.000000 -0.000000 0.000000 0.000000 0.000000 0.000000 0.000000 -0.000000 0.000000 0.000000 -0.000000 0.000000 0.000000 -0.000000 0.000000 0.000000 -0.000000 0.000000 0.000000 0.000000 0.000000 0.000000 0.000000 0.000000 0.000000 -0.000000 0.000000 0.000000 -0.000000 0.000000 0.000000 -0.000000 0.000000 0.000000 -0.000000 0.000000 0.000000 0.000000 0.000000 0.000000 0.000000 0.000000 0.000000 0.000000 0.000000 -72.116439 -0.000000 0.000000 0.000000 -0.000000 0.000000 0.000000 0.000000 0.000000 0.000000 0.000000 0.000000 -72.116439 -0.000000 0.000000 0.000000 -0.000000 0.000000 0.000000 0.000000 0.000000 0.000000
17.179915 84.902969 319.306178 0.388984 0.256434 70.268068 -0.372705 0.279567 -70.268029 -0.000000 0.000000 0.000000 1.525061 1.267502 -0.946917 0.000000 0.000000 0.000000 -0.000000 0.000000 0.000000 -0.000000 0.000000 0.000000 -0.000000 0.000000 0.000000 1.066476 0.333772 -1.400382 0.000000 0.000000 0.000000 0.000000 0.000000 0.000000 -0.256392 0.844196 0.201476 1.640423 0.587089 -0.852932 1.052929 0.065435 -0.119165 1.558822 -4.400372 1.673449 0.000000 0.000000 0.000000 0.000000 0.000000 0.000000 4.355629 -6.180845 -66.476128 -10.882883 -2.491902 -3.717499 -9.871518 7.897737 1.444193 0.000000 0.000000 0.000000 0.171497 3.106276 -69.512719 3.616895 -3.211551 -1.359110 -9.391180 5.279318 4.088012 0.000000 0.000000 0.000000
17.381542 84.066892 320.104658 0.890470 0.519139 68.298515 -0.811613 0.635399 -68.298049 -0.000000 0.000000 0.000000 2.914079 2.271020 -1.805785 0.000000 0.000000 0.000000 -0.000000 0.000000 0.000000 -0.000000 0.000000 0.000000 -0.000000 0.000000 0.000000 1.931761 0.458396 -2.420045 0.000000 0.000000 0.000000 0.000000 0.000000 0.000000 -0.536776 1.532885 0.382542 3.127757 1.091660 -1.578251 1.852870 -0.552741 0.132090 2.710317 -7.087029 2.880652 0.000000 0.000000 0.000000 0.000000 0.000000 0.000000 8.795316 -10.669953 -60.893053 -21.129014 -4.111555 -7.203307 -18.125584 14.202122 4.287584 0.000000 0.000000 0.000000 -0.227603 6.308728 -66.836883 6.985261 -6.077968 -2.474133 -16.419802 8.817661 7.834104 0.000000 0.000000 0.000000
17.815923 83.353672 320.725699 1.502593 0.789622 66.223624 -1.328405 1.056733 -66.221728 -0.000000 0.000000 0.000000 4.164441 3.023456 -2.567589 0.000000 0.000000 0.000000 -0.000000 0.000000 0.000000 -0.000000 0.000000 0.000000 -0.000000 0.000000 0.000000 2.612069 0.399396 -3.088456 0.000000 0.000000 0.000000 0.000000 0.000000 0.000000 -0.839947 2.066755 0.542573 4.449055 1.518317 -2.178246 2.525617 -1.717009 0.706022 3.174615 -8.238540 3.438944 0.000000 0.000000 0.000000 0.000000 0.000000 0.000000 12.816579 -13.403249 -55.763234 -30.332460 -5.044722 -10.154112 -24.308702 18.649181 7.667720 0.000000 0.000000 0.000000 -1.243326 9.505953 -64.067007 10.114795 -8.557558 -3.401708 -21.450131 11.194965 10.972226 0.000000 0.000000 0.000000
18.483058 82.763309 321.169300 2.225042 1.069333 64.073378 -1.934577 1.533628 -64.068249 -0.000000 0.000000 0.000000 5.275251 3.536785 -3.225645 0.000000 0.000000 0.000000 -0.000000 0.000000 0.000000 -0.000000 0.000000 0.000000 -0.000000 0.000000 0.000000 3.121945 0.172460 -3.426777 0.000000 0.000000 0.000000 0.000000 0.000000 0.000000 -1.164899 2.446654 0.680767 5.595308 1.872078 -2.655678 3.169477 -3.360994 1.580873 2.806793 -7.963101 3.257095 0.000000 0.000000 0.000000 0.000000 0.000000 0.000000 16.032285 -14.588433 -51.389584 -38.301087 -5.560611 -12.448916 -28.505775 21.537945 10.953437 0.000000 0.000000 0.000000 -2.903984 12.591217 -61.191091 12.999222 -10.619912 -4.191781 -24.813569 12.833365 13.449103 0.000000 0.000000 0.000000
19.382948 82.295805 321.435463 3.058881 1.359682 61.896185 -1.638112 0.873114 -61.869720 -0.757851 0.461349 0.018524 5.486605 3.032452 -3.759050 0.000000 0.000000 0.000000 -0.759752 -0.785787 -0.069915 -0.000000 0.000000 0.000000 -0.000000 0.000000 0.000000 3.473778 -0.215056 -3.447981 0.000000 0.000000 0.000000 0.000000 0.000000 0.000000 -2.266483 1.889801 0.705501 6.560497 2.157581 -3.013290 3.864432 -5.471339 2.760656 1.572989 -6.277066 2.339581 0.000000 0.000000 0.000000 0.000000 0.000000 0.000000 18.211644 -14.534666 -47.942311 -44.955680 -5.911859 -14.094978 -31.080105 23.255318 13.816661 0.000000 0.000000 0.000000 -5.212070 15.459628 -58.220128 15.619607 -12.245386 -4.887549 -26.745022 14.001221 15.276833 0.000000 0.000000 0.000000
21.620032 81.793190 321.229829 5.076614 1.860010 59.199442 -1.873502 0.884341 -59.153593 -1.854900 0.459068 0.013323 5.944825 2.409020 -4.318389 0.000000 0.000000 0.000000 -1.504272 -1.156391 -0.136281 -0.000000 0.000000 0.000000 -0.000000 0.000000 0.000000 3.923129 -1.222291 -2.988941 0.000000 0.000000 0.000000 0.000000 0.000000 0.000000 -3.455739 1.634235 0.736476 7.685623 2.255884 -3.282155 4.450693 -9.614053 5.157002 -0.426412 -1.132590 -0.281440 0.000000 0.000000 0.000000 0.000000 0.000000 0.000000 18.917481 -11.887751 -45.744433 -52.032120 -7.416480 -15.691349 -33.965311 22.663488 16.830162 0.000000 0.000000 0.000000 -10.212857 20.286665 -53.888740 19.522970 -14.229160 -5.961650 -23.847607 14.698141 14.997248 0.000000 0.000000 0.000000
22.525221 81.248535 321.193562 5.447557 2.042175 55.990246 -1.436565 0.226233 -55.930883 -2.241227 0.515244 0.025048 5.713451 2.175766 -4.596225 0.000000 0.000000 0.000000 -2.218291 -1.482161 -0.203357 -0.000000 0.000000 0.000000 -0.000000 0.000000 0.000000 4.016232 -2.186486 -2.166846 0.000000 0.000000 0.000000 0.000000 0.000000 0.000000 -4.575292 1.170843 0.705897 8.320559 2.461110 -3.403119 5.497361 -13.764992 7.660095 -2.899602 3.884098 -2.310820 0.000000 0.000000 0.000000 0.000000 0.000000 0.000000 20.399965 -10.938756 -42.136942 -57.888587 -7.529194 -16.917348 -34.961311 23.275843 19.317255 0.000000 0.000000 0.000000 -13.290392 21.209715 -49.820201 20.848231 -15.373903 -6.598250 -23.448391 15.671593 15.819121 0.000000 0.000000 0.000000
23.801674 81.143039 320.990926 6.562570 2.379370 54.322314 -1.561650 0.349193 -54.270367 -2.390214 0.491533 0.044048 5.097511 1.369859 -4.589333 0.000000 0.000000 0.000000 -2.983051 -1.788876 -0.277874 -0.000000 0.000000 0.000000 -0.000000 0.000000 0.000000 3.677679 -2.954999 -1.057873 0.000000 0.000000 0.000000 0.000000 0.000000 0.000000 -5.693673 0.567488 0.621445 8.494116 2.658601 -3.378659 7.508647 -17.260157 10.005794 -6.188855 9.912901 -4.174188 0.000000 0.000000 0.000000 0.000000 0.000000 0.000000 19.206568 -9.521473 -41.133641 -59.967438 -7.599610 -16.917561 -34.573835 25.477580 21.481460 0.000000 0.000000 0.000000 -16.868925 22.456646 -47.254418 22.024465 -15.458025 -7.072486 -22.683270 16.177519 16.187022 0.000000 0.000000 0.000000
24.070858 81.354355 320.708498 6.526253 2.695573 54.769360 -1.236132 0.012356 -54.719694 -2.185721 0.331635 0.072534 5.688716 0.842123 -5.134180 0.000000 0.000000 0.000000 -3.625051 -2.002693 -0.341465 -0.000000 0.000000 0.000000 -0.000000 0.000000 0.000000 3.377069 -3.068746 -0.627885 0.000000 0.000000 0.000000 0.000000 0.000000 0.000000 -6.690625 -0.032924 0.528537 8.359843 2.786282 -3.238384 8.993266 -19.258466 11.384064 -9.924851 16.397849 -5.458655 0.000000 0.000000 0.000000 0.000000 0.000000 0.000000 15.789446 -8.707586 -43.262334 -56.533262 -7.866503 -15.037308 -29.107386 26.432783 19.381285 0.000000 0.000000 0.000000 -17.813412 21.597886 -47.960043 21.280277 -14.298117 -7.066801 -21.924937 16.272438 16.190712 0.000000 0.000000 0.000000
23.406011 81.902541 320.520956 5.566049 2.934954 53.322597 -0.727083 -0.601949 -53.259367 -1.589295 0.141634 0.112370 6.731983 0.246798 -5.725504 0.000000 0.000000 0.000000 -4.035388 -2.109744 -0.381817 -0.000000 0.000000 0.000000 -0.000000 0.000000 0.000000 2.633863 -2.773010 -0.133959 0.000000 0.000000 0.000000 0.000000 0.000000 0.000000 -7.506158 -0.446224 0.485139 8.046161 2.847035 -3.075916 11.297311 -20.854435 12.677649 -13.519667 21.757806 -6.016174 0.000000 0.000000 0.000000 0.000000 0.000000 0.000000 15.951004 -8.512718 -42.204326 -56.450152 -9.314851 -15.690103 -29.485461 31.810407 23.401899 0.000000 0.000000 0.000000 -17.356534 18.760350 -47.427007 19.370591 -13.413423 -6.789222 -21.575781 16.245340 16.241002 0.000000 0.000000 0.000000
22.695738 82.070898 320.194313 4.796501 3.239287 52.417477 -0.585550 -0.766322 -52.357613 -0.855207 -0.093248 0.153030 6.854077 -0.302655 -5.750839 0.000000 0.000000 0.000000 -4.203404 -2.190154 -0.400538 -0.000000 0.000000 0.000000 -0.000000 0.000000 0.000000 1.918293 -2.190521 0.052923 0.000000 0.000000 0.000000 0.000000 0.000000 0.000000 -8.160113 -0.701540 0.502730 7.702397 2.641139 -2.872453 13.515404 -20.533350 12.729546 -17.227479 24.175419 -5.442574 0.000000 0.000000 0.000000 0.000000 0.000000 0.000000 16.404708 -9.086768 -40.986384 -56.604510 -9.846116 -16.238805 -35.517265 34.563852 28.683458 0.000000 0.000000 0.000000 -16.586768 15.954370 -47.515922 17.434100 -12.221482 -6.331467 -21.467824 15.914265 16.150362 0.000000 0.000000 0.000000
22.417593 82.083846 319.714172 4.656273 3.640422 54.013500 -0.840116 -0.463452 -53.983564 -0.214237 -0.259223 0.191200 6.656297 -1.160903 -5.545554 0.000000 0.000000 0.000000 -4.337288 -2.403791 -0.423874 -0.000000 0.000000 0.000000 -0.000000 0.000000 0.000000 1.240853 -1.176537 -0.198569 0.000000 0.000000 0.000000 0.000000 0.000000 0.000000 -8.756540 -1.173476 0.480350 7.154939 2.808374 -2.723032 15.212323 -19.716921 12.236915 -20.648372 24.021286 -3.999003 0.000000 0.000000 0.000000 0.000000 0.000000 0.000000 15.440074 -11.871412 -41.014019 -55.811763 -7.533306 -15.366684 -58.552304 32.265665 40.369703 0.000000 0.000000 0.000000 -16.377433 14.957408 -49.639170 16.440675 -11.238273 -6.068137 -21.354077 15.736189 16.176443 0.000000 0.000000 0.000000
21.866222 82.019777 319.308581 4.255238 3.860432 56.128780 -0.946929 -0.140820 -56.121092 0.494599 -0.346110 0.229838 6.462612 -2.031905 -5.277341 0.000000 0.000000 0.000000 -4.354703 -2.624091 -0.437589 -0.000000 0.000000 0.000000 -0.000000 0.000000 0.000000 0.860505 -0.358253 -0.558895 0.000000 0.000000 0.000000 0.000000 0.000000 0.000000 -9.197079 -1.449711 0.500898 6.697246 2.684079 -2.579256 15.449510 -18.153423 10.972188 -22.663602 22.153548 -2.585697 0.000000 0.000000 0.000000 0.000000 0.000000 0.000000 16.850951 -13.250190 -42.090453 -57.926480 -7.480018 -16.273923 -74.785971 29.838598 50.446765 0.000000 0.000000 0.000000 -15.565295 13.987081 -52.283730 15.331971 -10.727601 -5.866397 -21.406020 15.795843 16.399402 0.000000 0.000000 0.000000
